# xmcd CD database file
#
# Track frame offsets:
#	150
#	16357
#	35745
#	55412
#	72745
#	87975
#	104532
#	126937
#	146187
#	161555
#	187727
#
# Disc length: 2765 seconds
#
# Revision: 3
# Processed by: cddbd v1.5.2PL0 Copyright (c) Steve Scherf et al.
# Submitted via: CDex 1.70beta3
#
DISCID=a30acb0b
DTITLE=THE CHECKERS - GO
DYEAR=1987
DGENRE=JPop
TTITLE0=REVOLUTION 2007
TTITLE1=YOU'RE A REPLICANT(cama cama moo moo)
TTITLE2=MELLOW TONIGHT
TTITLE3=NANA
TTITLE4=BLUES OF IF
TTITLE5=TOKYO CONNECTION
TTITLE6=I LOVE YOU, SAYONARA
TTITLE7=MY GRADUATION
TTITLE8=GO INTO THE WHOLE
TTITLE9=QUATRE SAISONS
TTITLE10=MR.BOYをさがして
EXTD=YEAR: 1987
EXTT0=
EXTT1=
EXTT2=
EXTT3=
EXTT4=
EXTT5=
EXTT6=
EXTT7=
EXTT8=
EXTT9=
EXTT10=
PLAYORDER=
